<svg xmlns="http://www.w3.org/2000/svg" xmlns:xlink="http://www.w3.org/1999/xlink" width="330" height="158" viewBox="0 0 330 158">
  <defs>
    <clipPath id="clip-path">
      <rect id="Rectángulo_6" data-name="Rectángulo 6" width="257.626" height="90.422" fill="none"/>
    </clipPath>
  </defs>
  <g id="_25años" data-name="25años" transform="translate(-112 -359)">
    <g id="Grupo_8" data-name="Grupo 8" transform="translate(148 393)">
      <g id="Grupo_7" data-name="Grupo 7" transform="translate(0)" clip-path="url(#clip-path)">
        <path id="Trazado_1" data-name="Trazado 1" d="M4.037,71.451q11.988-9.91,18.9-16.273A78.294,78.294,0,0,0,34.624,41.843q4.77-6.973,4.772-13.58,0-5.016-2.324-7.83T30.1,17.619a8.607,8.607,0,0,0-7.28,3.487q-2.633,3.487-2.63,9.849H0q.243-10.4,4.465-17.373A25.945,25.945,0,0,1,15.6,3.3,35.154,35.154,0,0,1,30.954,0q14.557,0,21.96,7.463t7.4,19.454q0,13.092-8.932,24.285A131.563,131.563,0,0,1,28.628,73.041H61.661V90.047H.244V74.51q4.158-3.3,3.793-3.059" transform="translate(0 -0.001)" fill="#fff"/>
        <path id="Trazado_2" data-name="Trazado 2" d="M192.728,51.948a11.1,11.1,0,0,1,6.851-2.019q5.626,0,8.565,3.181c.091.1.17.21.257.314l12.373-15.219c-.388-.3-.78-.6-1.191-.877q-6.057-4.158-15.232-4.159a26.108,26.108,0,0,0-9.543,1.713,17.8,17.8,0,0,0-6.851,4.4V22.4h38.172V4.05H168.993V57.271h20.186a9.407,9.407,0,0,1,3.549-5.322" transform="translate(-92.405 -2.215)" fill="#fff"/>
        <path id="Trazado_3" data-name="Trazado 3" d="M178.875,164.165,191,149.256c-.06-.05-.125-.094-.183-.146a10.993,10.993,0,0,1-3.548-6.3H166.834a27.1,27.1,0,0,0,4.281,13.825,24.961,24.961,0,0,0,7.76,7.531" transform="translate(-91.225 -78.088)" fill="#fff"/>
        <path id="Trazado_4" data-name="Trazado 4" d="M302.177,121.544h-7.206l-1.382,3.762h-1.677l5.778-15.635h1.791l5.756,15.635H303.56Zm-.476-1.314-3.127-8.565-3.127,8.565Z" transform="translate(-159.618 -59.968)" fill="#fff"/>
        <path id="Trazado_5" data-name="Trazado 5" d="M338.854,121.122h-1.586L328.5,107.8v13.324h-1.586V105.283H328.5l8.769,13.3v-13.3h1.586Zm-8.294-18.558a1.771,1.771,0,0,1,1.337-.544,1.56,1.56,0,0,1,.7.147,6.82,6.82,0,0,1,.7.419,4.2,4.2,0,0,0,.59.374,1.191,1.191,0,0,0,.543.125.914.914,0,0,0,.657-.261,1.247,1.247,0,0,0,.34-.759h.952a2.428,2.428,0,0,1-.646,1.552,1.86,1.86,0,0,1-1.371.555,1.685,1.685,0,0,1-.736-.147,4.835,4.835,0,0,1-.714-.442,3.137,3.137,0,0,0-.555-.363,1.231,1.231,0,0,0-.533-.113q-.815,0-.952,1.02H329.9a2.714,2.714,0,0,1,.657-1.564" transform="translate(-178.756 -55.785)" fill="#fff"/>
        <path id="Trazado_6" data-name="Trazado 6" d="M363.464,123.968a7.427,7.427,0,0,1-2.821-2.878,8.992,8.992,0,0,1,0-8.362,7.433,7.433,0,0,1,2.821-2.878,8.273,8.273,0,0,1,8,0,7.362,7.362,0,0,1,2.81,2.878,9.08,9.08,0,0,1,0,8.362,7.356,7.356,0,0,1-2.81,2.878,8.273,8.273,0,0,1-8,0m7.161-1.167a5.789,5.789,0,0,0,2.22-2.345,8.087,8.087,0,0,0,0-7.081,5.807,5.807,0,0,0-2.22-2.334,6.576,6.576,0,0,0-6.345,0,5.809,5.809,0,0,0-2.221,2.334,8.091,8.091,0,0,0,0,7.081,5.791,5.791,0,0,0,2.221,2.345,6.576,6.576,0,0,0,6.345,0" transform="translate(-196.636 -59.503)" fill="#fff"/>
        <path id="Trazado_7" data-name="Trazado 7" d="M402.006,124.455a4.5,4.5,0,0,1-1.869-1.518,3.988,3.988,0,0,1-.726-2.175h1.677a3.183,3.183,0,0,0,1.02,2.028,3.676,3.676,0,0,0,2.651.872,3.722,3.722,0,0,0,2.549-.827,2.67,2.67,0,0,0,.94-2.1,2.478,2.478,0,0,0-.521-1.643,3.2,3.2,0,0,0-1.292-.929,20.1,20.1,0,0,0-2.13-.668,18.616,18.616,0,0,1-2.515-.838,4,4,0,0,1-1.586-1.269,3.758,3.758,0,0,1-.657-2.334,3.883,3.883,0,0,1,.635-2.187,4.248,4.248,0,0,1,1.79-1.507,6.156,6.156,0,0,1,2.651-.544,5.517,5.517,0,0,1,3.547,1.076,4.044,4.044,0,0,1,1.552,2.776H408a2.852,2.852,0,0,0-1.065-1.733,4.215,4.215,0,0,0-4.827,0,2.508,2.508,0,0,0-.952,2.073,2.4,2.4,0,0,0,.521,1.609,3.323,3.323,0,0,0,1.3.929,19.256,19.256,0,0,0,2.119.68,19.194,19.194,0,0,1,2.493.85,4.067,4.067,0,0,1,1.609,1.28,3.719,3.719,0,0,1,.657,2.311,4.076,4.076,0,0,1-.589,2.107,4.3,4.3,0,0,1-1.744,1.609,5.836,5.836,0,0,1-2.765.612,6.558,6.558,0,0,1-2.753-.544" transform="translate(-218.398 -59.503)" fill="#fff"/>
        <path id="Trazado_8" data-name="Trazado 8" d="M452.11,110.172a6.649,6.649,0,0,1,2.878,2.742,8.627,8.627,0,0,1,1,4.26,8.511,8.511,0,0,1-1,4.226,6.6,6.6,0,0,1-2.878,2.719,9.981,9.981,0,0,1-4.509.94H442.91V109.22H447.6a9.884,9.884,0,0,1,4.509.952m.533,11.84a6.538,6.538,0,0,0,1.733-4.838,6.649,6.649,0,0,0-1.733-4.883,6.777,6.777,0,0,0-5.042-1.756h-3.1v13.211h3.1a6.829,6.829,0,0,0,5.042-1.733" transform="translate(-242.183 -59.722)" fill="#fff"/>
        <path id="Trazado_9" data-name="Trazado 9" d="M479.8,110.484V116.4h6v1.314h-6v6h6.685v1.314H478.21V109.17h8.271v1.314Z" transform="translate(-261.486 -59.694)" fill="#fff"/>
        <path id="Trazado_10" data-name="Trazado 10" d="M235.217,163.77v3.988h-4.26v12.055h-5.031V167.758h-4.215V163.77Z" transform="translate(-121.232 -89.55)" fill="#fff"/>
        <path id="Trazado_11" data-name="Trazado 11" d="M262.578,179.813l-3.013-5.756h-.023v5.756h-5.03V163.77h7.478a7.378,7.378,0,0,1,3.331.691,4.8,4.8,0,0,1,2.073,1.881,5.245,5.245,0,0,1,.692,2.685,4.772,4.772,0,0,1-.9,2.855,4.916,4.916,0,0,1-2.572,1.79l3.49,6.141Zm-3.036-9.109h1.994a1.574,1.574,0,0,0,1.088-.329,1.579,1.579,0,0,0-.012-2.028,1.484,1.484,0,0,0-1.076-.363h-1.994Z" transform="translate(-139.167 -89.55)" fill="#fff"/>
        <path id="Trazado_12" data-name="Trazado 12" d="M296.933,177.389h-5.348l-.793,2.425h-5.28l5.869-16.043h5.8l5.846,16.043h-5.3Zm-1.224-3.784-1.45-4.464-1.45,4.464Z" transform="translate(-156.118 -89.55)" fill="#fff"/>
        <path id="Trazado_13" data-name="Trazado 13" d="M340.7,163.77l-5.756,11.171v4.872h-5.031v-4.872l-5.756-11.171h5.756l2.561,5.688,2.561-5.688Z" transform="translate(-177.252 -89.55)" fill="#fff"/>
        <path id="Trazado_14" data-name="Trazado 14" d="M368.191,167.781v1.971h4.985v3.784h-4.985V175.8h5.665v4.011h-10.7V163.77h10.7v4.011Z" transform="translate(-198.577 -89.55)" fill="#fff"/>
        <path id="Trazado_15" data-name="Trazado 15" d="M390.924,167.34a6.954,6.954,0,0,1,2.753-2.889,8.3,8.3,0,0,1,4.215-1.031,8.573,8.573,0,0,1,3.728.782,6.891,6.891,0,0,1,2.674,2.209,8.006,8.006,0,0,1,1.371,3.331h-5.3a2.875,2.875,0,0,0-1.031-1.235,2.712,2.712,0,0,0-1.53-.442,2.4,2.4,0,0,0-2.005.952,4.82,4.82,0,0,0,0,5.121,2.4,2.4,0,0,0,2.005.952,2.712,2.712,0,0,0,1.53-.442,2.872,2.872,0,0,0,1.031-1.235h5.3a8.006,8.006,0,0,1-1.371,3.331,6.892,6.892,0,0,1-2.674,2.209,8.573,8.573,0,0,1-3.728.782,8.3,8.3,0,0,1-4.215-1.031,6.949,6.949,0,0,1-2.753-2.889,9.8,9.8,0,0,1,0-8.475" transform="translate(-213.231 -89.358)" fill="#fff"/>
        <path id="Trazado_16" data-name="Trazado 16" d="M440.116,163.77v3.988h-4.26v12.055h-5.031V167.758H426.61V163.77Z" transform="translate(-233.271 -89.55)" fill="#fff"/>
        <path id="Trazado_17" data-name="Trazado 17" d="M462.523,178.579a7.958,7.958,0,0,1-3-2.946,8.638,8.638,0,0,1,0-8.475,7.88,7.88,0,0,1,3-2.934,8.709,8.709,0,0,1,8.3,0,7.835,7.835,0,0,1,2.979,2.934,8.715,8.715,0,0,1,0,8.475,7.883,7.883,0,0,1-2.991,2.946,8.6,8.6,0,0,1-8.293,0m6.469-4.589a4.568,4.568,0,0,0,0-5.212,3.282,3.282,0,0,0-4.645,0,4.57,4.57,0,0,0,0,5.212,3.282,3.282,0,0,0,4.645,0" transform="translate(-250.659 -89.221)" fill="#fff"/>
        <path id="Trazado_18" data-name="Trazado 18" d="M506.876,179.813l-3.013-5.756h-.023v5.756h-5.031V163.77h7.478a7.378,7.378,0,0,1,3.331.691,4.8,4.8,0,0,1,2.073,1.881,5.245,5.245,0,0,1,.692,2.685,4.772,4.772,0,0,1-.9,2.855,4.916,4.916,0,0,1-2.572,1.79l3.49,6.141ZM503.84,170.7h1.994a1.574,1.574,0,0,0,1.088-.329,1.579,1.579,0,0,0-.012-2.028,1.484,1.484,0,0,0-1.076-.363H503.84Z" transform="translate(-272.749 -89.55)" fill="#fff"/>
        <path id="Trazado_19" data-name="Trazado 19" d="M541.231,177.389h-5.348l-.793,2.425h-5.28l5.869-16.043h5.8l5.846,16.043h-5.3Zm-1.224-3.784-1.45-4.464-1.45,4.464Z" transform="translate(-289.7 -89.55)" fill="#fff"/>
      </g>
    </g>
    <rect id="Rectángulo_410" data-name="Rectángulo 410" width="330" height="158" transform="translate(112 359)" fill="none"/>
  </g>
</svg>
