<svg xmlns="http://www.w3.org/2000/svg" xmlns:xlink="http://www.w3.org/1999/xlink" width="330" height="158" viewBox="0 0 330 158">
  <defs>
    <clipPath id="clip-path">
      <rect id="Rect치ngulo_13" data-name="Rect치ngulo 13" width="157.236" height="131.015" fill="none"/>
    </clipPath>
  </defs>
  <g id="rep" transform="translate(-411 -672)">
    <g id="Grupo_13" data-name="Grupo 13" transform="translate(497 685)">
      <g id="Grupo_12" data-name="Grupo 12" clip-path="url(#clip-path)">
        <path id="Trazado_24" data-name="Trazado 24" d="M155.018,88.376c-1.233-.134-.024,1.171-1.175.852a2.039,2.039,0,0,0-1.032-.024,1.668,1.668,0,0,0-.668-.184c-1.643-.2-3.412-1.309-5.028-.256s-6.308.48-7.552.924c-1.048.373-4.179,1.548-3.654,3.727-.433-.315-.461.035-.6,1.168a22.182,22.182,0,0,1-1.141,4.682,7.2,7.2,0,0,1-3.48,4.1c-2.221,1.1-1.406,1.793-.54,2.508s-1.366.95-2.264.989-1.324-.37-1.3-1.089-.041-1.128-2.774-.674a1.639,1.639,0,0,0-.751.278c-.948.1-2.091,1.114-3.383,1.406-1.713.386-2.83-.7-4.727-.28a3.588,3.588,0,0,0-1.537.664.965.965,0,0,0-.6.266c-.987.772-1.858,1.083-2.368-.111s-1.158-2.7-2.837-3.084-3.449.948-5.114-2.469-3.121-7.106-4.976-9.952-2.261-4.383-1.767-5.513-.672-1.808-1.16-3.177a2.592,2.592,0,0,1-.487-1.369,4.555,4.555,0,0,0-.378-2.373c.126.031.2.052.2.052a8.434,8.434,0,0,1,.259-2.126A12.941,12.941,0,0,0,95.266,73.1a57.172,57.172,0,0,1,.482-5.91c.242-1.329.737-3.427.774-4.381s-.436-1.012.7-1.114,2.887-2.045,3.061-3.463-.74-.49-2.25.1S96.171,57.173,94.9,57.1s-.7-.8-2.043-.969-.3-.756-1.554-.989-1.339-.164-1.815-1.5-.97-1.877-1.052-3.166-.517-1.661-.332-2.518.083-1.988-1.2-1.984a.909.909,0,0,0-.357.073,2.645,2.645,0,0,0-.11-1.489c-.426-1.091-2.559.007-2.452-3.488s-2.408-5.817-4.227-8.6-.43.906-3.22-1.112-1.2.013-3.19-.06-1.695,2.1-2.921,3.629a11.068,11.068,0,0,1-2.548,1.817c.094-.1.185-.194.284-.294l.4-.433a6.714,6.714,0,0,0-2.031-1.825c-.916-.351-.5-1.249-1.469-1.128s-1.846-.62-2.372-2.2a21.387,21.387,0,0,1-1.166-4.215c-.32-1.957.833-.936-1.29-3.193s-5.684-7.087-6.462-7.262-9.209-1.123-9.209-1.123l-.2,1.649a9.5,9.5,0,0,0-2.965-.057.879.879,0,0,0-.225-.088c-.7-.165-10.8-1.878-10.8-1.878L12.973,4.1a3.987,3.987,0,0,0-1.243-.677c.076-.111-.077-.017-.077-.017h0L.088,0S-.364,1.955.779,2.653s1.572,1.755.888,2.788S.713,7.67,1.5,8.549A3.394,3.394,0,0,1,2.193,11.2c0,.894,1.267.6,1.119,1.812S1.79,14.5,2.989,15.654s-.913,2.9.548,3.752S5.163,20.722,6.5,22.56c1.32,1.812,4.6,4.405,3.559,6.8-.016.035-.029.071-.046.106-1.189,2.424-1.793,2.8-.76,3.481s1.806,1.672.829,1.441S8.16,32,7.961,32.566c-.355,1-.55-.067-1.334-.051S2.744,31.389,5.021,33.78s3.814,6.263,6.4,6.132,2.863,1.243,3.473,2.657,2.424,1.189,2.526,3.1-3.353,5.509.412,9.431,7.636,6.974,7.335,9.445-.036,3.954,1.776,2.835,4.053-1.181,2.837-3.116-1.318-3.846-2.214-4.737-1.022-1.689-1.42-1.178-1.315,1.627-1.471.155-1.463-1.742-.19-3.932.255-2.09-1.071-4.039-2.013-1.809-1.481-3.42-.515-6.764-1.132-6.28-1.31,3.414-1.347.059S19.064,39.5,18.4,37.637s-1.937-1.514-1.829-3.319c.088-1.464.479-3.017-.309-4.2a2.857,2.857,0,0,0-.761-.763c-1.749-1.219.849-1.46-1.617-3.212a10.974,10.974,0,0,1-4.175-7.881c-.3-3.052-.927-9.791.353-10.212.318-.1.41-.284.4-.516l.019.018c2.091,1.854,3.159,3.583,4.436,2.939s1.244,1.59,2.3,2.119,1.623-.2,1.71,2.367A22.829,22.829,0,0,0,19.783,21c.6,2.311-.058,3.749,1.434,5.93s-.223,1.172,1.308,3.037.925,3.55,2.779,4.735,3.06-.186,3.016,1.487-2.194,3.569.18,4.418,3.033.69,3.008,2.205,1.1.853,2.013,1.844a2.245,2.245,0,0,1,.567,1.119,2.554,2.554,0,0,1,.025.777c-.589.727-1.144,1.505-1.564,2.141-.784,1.183,2.491,3.821,3,3.564S36.665,53.587,38,54.869s1.077.531,1.517,2.823.626,2.074,1.433,2.013.463.137.634,1.356.574,1.189,1.707,1.727,2.145,3.379,2.986,5,1.817,2.14,1.742,3.41c-.059,1,.886,1.617,1.918,2.116-.989,1.2.7,1.871,1.021,2.736.351.936-1.37-.874-1.649,1.413s1.992,2.881,2.067,3.724-.716,1.13-2.179,1.9c-1.29.682.108,1.623.458,1.836a2.48,2.48,0,0,1-1.3,1.011c-1.489.645,2.379,6.19,3.845,8.2a2.477,2.477,0,0,0-.13.252h0c0,.842,4.9,4.464,5.219,4.775,0,0-1.009-.807.207-.037,1.089,2.145,4.521,4.185,5.977,4.869a6.021,6.021,0,0,0,3.372.236c1.265,1.911,8.38,6.663,9.562,6.913,1.335.282,1.211.326,2.24,1.642s3.42,1.727,4.475,1.856a4.118,4.118,0,0,1,2.274.875,7.8,7.8,0,0,0,1.321.673,1.459,1.459,0,0,0,.611.632c1.7,1.16,1.2,2.289,3.671,2.531s2.468-.234,3.864,1.007,2.338,2.071,4.71,1.527,7.342-4.694,8.4-3.615,1.023,1.849,2.1,1.326a6.369,6.369,0,0,1,2.379-.38,1.866,1.866,0,0,0,.487.789l7.265,7.315,3,3.693,1.1-3.192-.693-1.636,2.991-4.512s7.547.088,7.628-.081.258-2.111.258-2.111-2.345-3.035-4.169-5.309c.17.057.356.112.571.168,1.235.324,1.061-1.666,1-3.645a32.08,32.08,0,0,0,8.652.6c.135-.025.251-.149.35-.344.37.291.85.243,1.074.339.391.166-.1-1.084,1.365-1.381s1.014.957,1.9-.482,3.184-3.659,4.386-3.75.005,1.9.647,2.987,2.036-4.982,2.451-5.942-.229-.564-.829-.525.517-.823,1.316-1.261-.669-.141-1.5-.778,1.052-.7,1.224-2.112a6.8,6.8,0,0,1,2.634-4.024c1.389-1.14,1.451-2.62,1.637-4.145s-.964-1.367-2.2-1.5" transform="translate(0)" fill="#fff"/>
        <path id="Trazado_25" data-name="Trazado 25" d="M179.046,76.111q-.223-.005-.448-.006t-.448.006c-11.614.312-19.147,13.116-14.418,24.35l13.694,24.075c.532.935,2.983.935,3.515,0l13.694-24.075c4.729-11.235-3.975-24.038-15.588-24.35M176.984,101.5a8.683,8.683,0,1,1,8.188-8.669,8.439,8.439,0,0,1-8.188,8.669" transform="translate(-104.445 -48.977)" fill="#fff"/>
        <path id="Trazado_26" data-name="Trazado 26" d="M179.046,76.111q-.223-.005-.448-.006t-.448.006c-11.614.312-19.147,13.116-14.418,24.35l13.694,24.075c.532.935,2.983.935,3.515,0l13.694-24.075C199.363,89.226,190.659,76.423,179.046,76.111ZM176.984,101.5a8.683,8.683,0,1,1,8.188-8.669A8.439,8.439,0,0,1,176.984,101.5Z" transform="translate(-104.445 -48.977)" fill="none" stroke="#011e41" stroke-miterlimit="10" stroke-width="3"/>
        <path id="Trazado_27" data-name="Trazado 27" d="M206.728,76.111c-.149,0-1.469-.006-1.619-.006s-.3,0-.448.006q-.59.016-1.165.074c10.944,1.1,17.822,13.421,13.253,24.275l-12.828,22.552a1.522,1.522,0,0,0,0,1.495l.016.028c.532.935,2.983.935,3.515,0l13.694-24.075c4.728-11.235-2.8-24.038-14.418-24.349" transform="translate(-130.958 -48.977)" fill="#011e41"/>
        <path id="Trazado_28" data-name="Trazado 28" d="M188.714,116.052a7.762,7.762,0,0,0,1.54-.154,8.777,8.777,0,0,1,0-17.03,7.789,7.789,0,0,0-1.54-.154,8.683,8.683,0,0,0,0,17.338" transform="translate(-116.176 -63.526)" fill="#011e41"/>
      </g>
    </g>
    <rect id="Rect치ngulo_412" data-name="Rect치ngulo 412" width="330" height="158" transform="translate(411 672)" fill="none"/>
  </g>
</svg>
